<svg xmlns="http://www.w3.org/2000/svg" width="390" height="844" viewBox="0 0 390 844">
  <rect x="1" y="1" width="388" height="842" rx="44" fill="#0a0a0c"/>
  <rect x="5" y="5" width="380" height="834" rx="40" fill="#000"/>
  <rect x="135" y="12" width="120" height="30" rx="15" fill="#000"/>
  <text x="24" y="33" font-family="-apple-system, Helvetica, Arial" font-size="14" font-weight="600" fill="#fff">9:41</text>
  <g fill="#fff">
    <rect x="300" y="22" width="18" height="10" rx="3"/>
    <rect x="322" y="24" width="12" height="8" rx="2"/>
    <circle cx="348" cy="27" r="4" fill="#fff" opacity="0.6"/>
  </g>

  <text x="20" y="112" font-family="-apple-system, Helvetica, Arial" font-size="24" font-weight="700" fill="#fff">Réglages</text>

  <!-- Connexion -->
  <g font-family="-apple-system, Helvetica, Arial">
    <rect x="20" y="130" width="350" height="140" rx="14" fill="#1c1c1e"/>
    <circle cx="46" cy="165" r="9" fill="none" stroke="#0a84ff" stroke-width="2.5"/>
    <rect x="40" y="153" width="4" height="12" rx="2" fill="#0a84ff"/>
    <rect x="44" y="149" width="4" height="20" rx="2" fill="#0a84ff"/>
    <rect x="48" y="155" width="4" height="8" rx="2" fill="#0a84ff"/>
    <text x="68" y="163" font-size="15" font-weight="500" fill="#fff">Connexion</text>
    <text x="68" y="183" font-size="12" fill="#8e8e93">Connecté au Mac</text>

    <rect x="20" y="182" width="350" height="0.5" fill="#3a3a3e"/>
    <circle cx="46" cy="215" r="9" fill="none" stroke="#8e8e93" stroke-width="2.5"/>
    <rect x="40" y="203" width="4" height="12" rx="2" fill="#8e8e93"/>
    <rect x="44" y="199" width="4" height="20" rx="2" fill="#8e8e93"/>
    <rect x="48" y="205" width="4" height="8" rx="2" fill="#8e8e93"/>
    <text x="68" y="213" font-size="15" font-weight="500" fill="#fff">Appareils</text>
    <text x="68" y="233" font-size="12" fill="#8e8e93">iPhone de Tim · iPhone de Tim (Clavier)</text>
  </g>

  <!-- Clavier -->
  <g font-family="-apple-system, Helvetica, Arial">
    <rect x="20" y="286" width="350" height="150" rx="14" fill="#1c1c1e"/>
    <text x="36" y="312" font-size="15" font-weight="500" fill="#fff">Clavier complet (extension)</text>
    <text x="36" y="332" font-size="12" fill="#8e8e93">1. Réglages › Claviers › Ajouter un clavier</text>
    <text x="36" y="352" font-size="12" fill="#8e8e93">2. Choisissez « Clavier TrackPad Hub »</text>
    <text x="36" y="372" font-size="12" fill="#8e8e93">3. Activez « Autoriser l'accès complet »</text>
    <text x="36" y="392" font-size="12" fill="#8e8e93">4. Il se connecte directement à votre Mac</text>
    <text x="36" y="420" font-size="12" fill="#ff9f0a">Non installé — voir Réglages › Claviers</text>
  </g>

  <!-- Astuces -->
  <g font-family="-apple-system, Helvetica, Arial">
    <rect x="20" y="452" width="350" height="140" rx="14" fill="#1c1c1e"/>
    <text x="36" y="478" font-size="15" font-weight="500" fill="#fff">Astuces trackpad</text>
    <text x="36" y="500" font-size="12" fill="#8e8e93">1 doigt bouge le curseur</text>
    <text x="36" y="522" font-size="12" fill="#8e8e93">2 doigts font défiler</text>
    <text x="36" y="544" font-size="12" fill="#8e8e93">Appui bref : 1 = clic · 2 = clic droit · 3 = milieu</text>
    <text x="36" y="566" font-size="12" fill="#8e8e93">3 doigts en mouvement : glisser-déposer</text>
    <text x="36" y="588" font-size="12" fill="#5f5f66">TrackPad Hub · v1.0</text>
  </g>

  <!-- Tab bar -->
  <rect x="6" y="790" width="378" height="48" rx="22" fill="#111114"/>
  <g text-anchor="middle">
    <rect x="34" y="806" width="22" height="16" rx="3" fill="#8e8e93"/>
    <text x="55" y="833" font-family="-apple-system, Helvetica, Arial" font-size="10" fill="#8e8e93">Trackpad</text>
    <rect x="145" y="807" width="20" height="13" rx="2" fill="#8e8e93"/>
    <rect x="149" y="811" width="12" height="2" rx="1" fill="#111"/>
    <text x="155" y="833" font-family="-apple-system, Helvetica, Arial" font-size="10" fill="#8e8e93">Clavier</text>
    <polygon points="252,805 268,813 252,822" fill="#8e8e93"/>
    <rect x="272" y="805" width="3" height="17" rx="1.5" fill="#8e8e93"/>
    <text x="258" y="833" font-family="-apple-system, Helvetica, Arial" font-size="10" fill="#8e8e93">Média</text>
    <polygon points="352,807 344,814 347,817 340,821 354,813 351,809" fill="#8e8e93"/>
    <text x="347" y="833" font-family="-apple-system, Helvetica, Arial" font-size="10" fill="#8e8e93">Racc.</text>
  </g>
  <rect x="170" y="821" width="50" height="5" rx="2.5" fill="#2c2c2e"/>
</svg>
