<svg xmlns="http://www.w3.org/2000/svg" width="390" height="844" viewBox="0 0 390 844">
  <rect x="1" y="1" width="388" height="842" rx="44" fill="#0a0a0c"/>
  <rect x="5" y="5" width="380" height="834" rx="40" fill="#000"/>
  <rect x="135" y="12" width="120" height="30" rx="15" fill="#000"/>
  <text x="24" y="33" font-family="-apple-system, Helvetica, Arial" font-size="14" font-weight="600" fill="#fff">9:41</text>
  <g fill="#fff">
    <rect x="300" y="22" width="18" height="10" rx="3"/>
    <rect x="322" y="24" width="12" height="8" rx="2"/>
    <circle cx="348" cy="27" r="4" fill="#fff" opacity="0.6"/>
  </g>

  <circle cx="28" cy="70" r="5" fill="#30d158"/>
  <text x="40" y="75" font-family="-apple-system, Helvetica, Arial" font-size="12" fill="#98989f">Connecté — un toucher lance le raccourci</text>

  <!-- Title + add button -->
  <text x="20" y="118" font-family="-apple-system, Helvetica, Arial" font-size="24" font-weight="700" fill="#fff">Raccourcis</text>
  <circle cx="356" cy="106" r="16" fill="#0a84ff"/>
  <line x1="356" y1="98" x2="356" y2="114" stroke="#fff" stroke-width="2.5" stroke-linecap="round"/>
  <line x1="348" y1="106" x2="364" y2="106" stroke="#fff" stroke-width="2.5" stroke-linecap="round"/>

  <!-- Tiles -->
  <g text-anchor="middle">
    <rect x="20" y="140" width="110" height="90" rx="16" fill="#1c1c1e"/>
    <path d="M75 168 l-8 14 5 2 -3 8 13 -13 -5 -2 8 -9 z" fill="#0a84ff"/>
    <text x="75" y="205" font-family="-apple-system, Helvetica, Arial" font-size="12" font-weight="500" fill="#d1d1d6">Safari</text>

    <rect x="140" y="140" width="110" height="90" rx="16" fill="#1c1c1e"/>
    <circle cx="195" cy="172" r="10" fill="none" stroke="#1db954" stroke-width="3"/>
    <rect x="195" y="164" width="3" height="16" rx="1.5" fill="#1db954"/>
    <text x="195" y="205" font-family="-apple-system, Helvetica, Arial" font-size="12" font-weight="500" fill="#d1d1d6">Spotify</text>

    <rect x="260" y="140" width="110" height="90" rx="16" fill="#1c1c1e"/>
    <path d="M315 156 l14 0 0 8 -14 0 z M315 168 l14 0 0 8 -14 0 z M315 180 l14 0 0 8 -14 0 z" fill="#8e8e93"/>
    <text x="315" y="205" font-family="-apple-system, Helvetica, Arial" font-size="12" font-weight="500" fill="#d1d1d6">Terminal</text>

    <rect x="20" y="242" width="110" height="90" rx="16" fill="#1c1c1e"/>
    <path d="M75 268 l-6 10 5 2 -2 7 10 -10 -4 -2 7 -7 z" fill="#ff9f0a"/>
    <text x="75" y="305" font-family="-apple-system, Helvetica, Arial" font-size="12" font-weight="500" fill="#d1d1d6">Raccourci</text>
  </g>

  <!-- Hint -->
  <text x="195" y="375" font-family="-apple-system, Helvetica, Arial" font-size="12" fill="#5f5f66" text-anchor="middle">Appui long sur une vignette : supprimer</text>

  <!-- Tab bar -->
  <rect x="6" y="790" width="378" height="48" rx="22" fill="#111114"/>
  <g text-anchor="middle">
    <rect x="34" y="806" width="22" height="16" rx="3" fill="#8e8e93"/>
    <text x="55" y="833" font-family="-apple-system, Helvetica, Arial" font-size="10" fill="#8e8e93">Trackpad</text>
    <rect x="145" y="807" width="20" height="13" rx="2" fill="#8e8e93"/>
    <rect x="149" y="811" width="12" height="2" rx="1" fill="#111"/>
    <text x="155" y="833" font-family="-apple-system, Helvetica, Arial" font-size="10" fill="#8e8e93">Clavier</text>
    <polygon points="252,805 268,813 252,822" fill="#8e8e93"/>
    <rect x="272" y="805" width="3" height="17" rx="1.5" fill="#8e8e93"/>
    <text x="258" y="833" font-family="-apple-system, Helvetica, Arial" font-size="10" fill="#8e8e93">Média</text>
    <rect x="332" y="800" width="42" height="28" rx="7" fill="#0a84ff" opacity="0.25"/>
    <polygon points="352,807 344,814 347,817 340,821 354,813 351,809" fill="#0a84ff"/>
    <text x="347" y="833" font-family="-apple-system, Helvetica, Arial" font-size="10" fill="#0a84ff">Racc.</text>
  </g>
  <rect x="170" y="821" width="50" height="5" rx="2.5" fill="#2c2c2e"/>
</svg>
